<mxfile host="app.diagrams.net" modified="2023-11-15T23:34:19.604Z" agent="Mozilla/5.0 (Windows NT 10.0; Win64; x64) AppleWebKit/537.36 (KHTML, like Gecko) Chrome/119.0.0.0 Safari/537.36" etag="9OckymnKs6UU9dA7c8GP" version="22.1.2" type="github">
  <diagram id="R2lEEEUBdFMjLlhIrx00" name="Page-1">
    <mxGraphModel dx="2385" dy="1658" grid="1" gridSize="10" guides="1" tooltips="1" connect="1" arrows="1" fold="1" page="0" pageScale="1" pageWidth="850" pageHeight="1100" math="0" shadow="0" extFonts="Permanent Marker^https://fonts.googleapis.com/css?family=Permanent+Marker">
      <root>
        <mxCell id="0" />
        <mxCell id="1" parent="0" />
        <mxCell id="vUZei0e0psz_SqlX4e-I-24" value="Classroom" style="whiteSpace=wrap;html=1;align=center;hachureGap=4;fontFamily=Architects Daughter;fontSource=https%3A%2F%2Ffonts.googleapis.com%2Fcss%3Ffamily%3DArchitects%2BDaughter;fontSize=20;rounded=0;fillColor=#d0cee2;strokeColor=#56517e;" parent="1" vertex="1">
          <mxGeometry x="60" y="960" width="100" height="40" as="geometry" />
        </mxCell>
        <mxCell id="RnodLkLtg4VCzTAe2rc--1" value="" style="endArrow=none;html=1;rounded=0;" parent="1" edge="1">
          <mxGeometry relative="1" as="geometry">
            <mxPoint x="160" y="979.29" as="sourcePoint" />
            <mxPoint x="270" y="979.79" as="targetPoint" />
          </mxGeometry>
        </mxCell>
        <mxCell id="RnodLkLtg4VCzTAe2rc--2" value="IN_USE" style="shape=rhombus;perimeter=rhombusPerimeter;whiteSpace=wrap;html=1;align=center;hachureGap=4;fontFamily=Architects Daughter;fontSource=https%3A%2F%2Ffonts.googleapis.com%2Fcss%3Ffamily%3DArchitects%2BDaughter;fontSize=20;rounded=0;fillColor=#bac8d3;strokeColor=#23445d;" parent="1" vertex="1">
          <mxGeometry x="220" y="950" width="120" height="60" as="geometry" />
        </mxCell>
        <mxCell id="RnodLkLtg4VCzTAe2rc--3" value="TSL" style="shape=ext;margin=3;double=1;whiteSpace=wrap;html=1;align=center;hachureGap=4;fontFamily=Architects Daughter;fontSource=https%3A%2F%2Ffonts.googleapis.com%2Fcss%3Ffamily%3DArchitects%2BDaughter;fontSize=20;rounded=0;fillColor=#d0cee2;strokeColor=#56517e;" parent="1" vertex="1">
          <mxGeometry x="420" y="960" width="100" height="40" as="geometry" />
        </mxCell>
        <mxCell id="RnodLkLtg4VCzTAe2rc--5" value="Section" style="whiteSpace=wrap;html=1;align=center;hachureGap=4;fontFamily=Architects Daughter;fontSource=https%3A%2F%2Ffonts.googleapis.com%2Fcss%3Ffamily%3DArchitects%2BDaughter;fontSize=20;rounded=0;fillColor=#d0cee2;strokeColor=#56517e;" parent="1" vertex="1">
          <mxGeometry x="835" y="960" width="100" height="40" as="geometry" />
        </mxCell>
        <mxCell id="RnodLkLtg4VCzTAe2rc--6" value="IN" style="shape=rhombus;perimeter=rhombusPerimeter;whiteSpace=wrap;html=1;align=center;hachureGap=4;fontFamily=Architects Daughter;fontSource=https%3A%2F%2Ffonts.googleapis.com%2Fcss%3Ffamily%3DArchitects%2BDaughter;fontSize=20;rounded=0;fillColor=#bac8d3;strokeColor=#23445d;" parent="1" vertex="1">
          <mxGeometry x="50" y="800" width="120" height="60" as="geometry" />
        </mxCell>
        <mxCell id="RnodLkLtg4VCzTAe2rc--7" value="Building" style="whiteSpace=wrap;html=1;align=center;hachureGap=4;fontFamily=Architects Daughter;fontSource=https%3A%2F%2Ffonts.googleapis.com%2Fcss%3Ffamily%3DArchitects%2BDaughter;fontSize=20;rounded=0;fillColor=#d0cee2;strokeColor=#56517e;" parent="1" vertex="1">
          <mxGeometry x="60" y="580" width="100" height="40" as="geometry" />
        </mxCell>
        <mxCell id="RnodLkLtg4VCzTAe2rc--9" value="HAS" style="shape=rhombus;perimeter=rhombusPerimeter;whiteSpace=wrap;html=1;align=center;hachureGap=4;fontFamily=Architects Daughter;fontSource=https%3A%2F%2Ffonts.googleapis.com%2Fcss%3Ffamily%3DArchitects%2BDaughter;fontSize=20;rounded=0;fillColor=#bac8d3;strokeColor=#23445d;" parent="1" vertex="1">
          <mxGeometry x="50" y="390" width="120" height="60" as="geometry" />
        </mxCell>
        <mxCell id="RnodLkLtg4VCzTAe2rc--10" value="Office" style="whiteSpace=wrap;html=1;align=center;hachureGap=4;fontFamily=Architects Daughter;fontSource=https%3A%2F%2Ffonts.googleapis.com%2Fcss%3Ffamily%3DArchitects%2BDaughter;fontSize=20;rounded=0;fillColor=#d0cee2;strokeColor=#56517e;" parent="1" vertex="1">
          <mxGeometry x="60" y="220" width="100" height="40" as="geometry" />
        </mxCell>
        <mxCell id="RnodLkLtg4VCzTAe2rc--12" value="Instructor" style="whiteSpace=wrap;html=1;align=center;hachureGap=4;fontFamily=Architects Daughter;fontSource=https%3A%2F%2Ffonts.googleapis.com%2Fcss%3Ffamily%3DArchitects%2BDaughter;fontSize=20;rounded=0;fillColor=#d0cee2;strokeColor=#56517e;" parent="1" vertex="1">
          <mxGeometry x="420" y="290" width="100" height="40" as="geometry" />
        </mxCell>
        <mxCell id="RnodLkLtg4VCzTAe2rc--13" value="Chair" style="whiteSpace=wrap;html=1;align=center;hachureGap=4;fontFamily=Architects Daughter;fontSource=https%3A%2F%2Ffonts.googleapis.com%2Fcss%3Ffamily%3DArchitects%2BDaughter;fontSize=20;rounded=0;fillColor=#d0cee2;strokeColor=#56517e;" parent="1" vertex="1">
          <mxGeometry x="420" y="110" width="100" height="40" as="geometry" />
        </mxCell>
        <mxCell id="RnodLkLtg4VCzTAe2rc--14" value="OCCUPIED_BY" style="shape=rhombus;perimeter=rhombusPerimeter;whiteSpace=wrap;html=1;align=center;hachureGap=4;fontFamily=Architects Daughter;fontSource=https%3A%2F%2Ffonts.googleapis.com%2Fcss%3Ffamily%3DArchitects%2BDaughter;fontSize=20;rounded=0;fillColor=#bac8d3;strokeColor=#23445d;" parent="1" vertex="1">
          <mxGeometry x="210" y="80" width="170" height="100" as="geometry" />
        </mxCell>
        <mxCell id="RnodLkLtg4VCzTAe2rc--15" value="OCCUPIED_BY" style="shape=rhombus;perimeter=rhombusPerimeter;whiteSpace=wrap;html=1;align=center;hachureGap=4;fontFamily=Architects Daughter;fontSource=https%3A%2F%2Ffonts.googleapis.com%2Fcss%3Ffamily%3DArchitects%2BDaughter;fontSize=20;rounded=0;fillColor=#bac8d3;strokeColor=#23445d;" parent="1" vertex="1">
          <mxGeometry x="210" y="260" width="160" height="100" as="geometry" />
        </mxCell>
        <mxCell id="RnodLkLtg4VCzTAe2rc--16" value="SLOT" style="shape=rhombus;double=1;perimeter=rhombusPerimeter;whiteSpace=wrap;html=1;align=center;hachureGap=4;fontFamily=Architects Daughter;fontSource=https%3A%2F%2Ffonts.googleapis.com%2Fcss%3Ffamily%3DArchitects%2BDaughter;fontSize=20;rounded=0;fillColor=#bac8d3;strokeColor=#23445d;" parent="1" vertex="1">
          <mxGeometry x="610" y="950" width="120" height="60" as="geometry" />
        </mxCell>
        <mxCell id="RnodLkLtg4VCzTAe2rc--17" value="&lt;font style=&quot;font-size: 14px;&quot;&gt;WORKS_FOR&lt;/font&gt;" style="shape=rhombus;perimeter=rhombusPerimeter;whiteSpace=wrap;html=1;align=center;hachureGap=4;fontFamily=Architects Daughter;fontSource=https%3A%2F%2Ffonts.googleapis.com%2Fcss%3Ffamily%3DArchitects%2BDaughter;fontSize=20;rounded=0;fillColor=#bac8d3;strokeColor=#23445d;" parent="1" vertex="1">
          <mxGeometry x="630" y="100" width="120" height="60" as="geometry" />
        </mxCell>
        <mxCell id="RnodLkLtg4VCzTAe2rc--18" value="&lt;font style=&quot;font-size: 14px;&quot;&gt;WORKS_FOR&lt;/font&gt;" style="shape=rhombus;perimeter=rhombusPerimeter;whiteSpace=wrap;html=1;align=center;hachureGap=4;fontFamily=Architects Daughter;fontSource=https%3A%2F%2Ffonts.googleapis.com%2Fcss%3Ffamily%3DArchitects%2BDaughter;fontSize=20;rounded=0;fillColor=#bac8d3;strokeColor=#23445d;" parent="1" vertex="1">
          <mxGeometry x="640" y="280" width="120" height="60" as="geometry" />
        </mxCell>
        <mxCell id="RnodLkLtg4VCzTAe2rc--19" value="Department" style="whiteSpace=wrap;html=1;align=center;hachureGap=4;fontFamily=Architects Daughter;fontSource=https%3A%2F%2Ffonts.googleapis.com%2Fcss%3Ffamily%3DArchitects%2BDaughter;fontSize=20;rounded=0;fillColor=#d0cee2;strokeColor=#56517e;" parent="1" vertex="1">
          <mxGeometry x="820" y="200" width="130" height="50" as="geometry" />
        </mxCell>
        <mxCell id="RnodLkLtg4VCzTAe2rc--20" value="TEACHES" style="shape=rhombus;perimeter=rhombusPerimeter;whiteSpace=wrap;html=1;align=center;hachureGap=4;fontFamily=Architects Daughter;fontSource=https%3A%2F%2Ffonts.googleapis.com%2Fcss%3Ffamily%3DArchitects%2BDaughter;fontSize=20;rounded=0;fillColor=#bac8d3;strokeColor=#23445d;" parent="1" vertex="1">
          <mxGeometry x="260" y="565" width="120" height="70" as="geometry" />
        </mxCell>
        <mxCell id="RnodLkLtg4VCzTAe2rc--22" value="TAKES" style="shape=rhombus;perimeter=rhombusPerimeter;whiteSpace=wrap;html=1;align=center;hachureGap=4;fontFamily=Architects Daughter;fontSource=https%3A%2F%2Ffonts.googleapis.com%2Fcss%3Ffamily%3DArchitects%2BDaughter;fontSize=20;rounded=0;fillColor=#bac8d3;strokeColor=#23445d;" parent="1" vertex="1">
          <mxGeometry x="825" y="750" width="120" height="60" as="geometry" />
        </mxCell>
        <mxCell id="RnodLkLtg4VCzTAe2rc--23" value="Student" style="whiteSpace=wrap;html=1;align=center;hachureGap=4;fontFamily=Architects Daughter;fontSource=https%3A%2F%2Ffonts.googleapis.com%2Fcss%3Ffamily%3DArchitects%2BDaughter;fontSize=20;rounded=0;fillColor=#d0cee2;strokeColor=#56517e;" parent="1" vertex="1">
          <mxGeometry x="835" y="580" width="100" height="40" as="geometry" />
        </mxCell>
        <mxCell id="RnodLkLtg4VCzTAe2rc--24" value="MAJORS" style="shape=rhombus;perimeter=rhombusPerimeter;whiteSpace=wrap;html=1;align=center;hachureGap=4;fontFamily=Architects Daughter;fontSource=https%3A%2F%2Ffonts.googleapis.com%2Fcss%3Ffamily%3DArchitects%2BDaughter;fontSize=20;rounded=0;fillColor=#bac8d3;strokeColor=#23445d;" parent="1" vertex="1">
          <mxGeometry x="825" y="370" width="120" height="60" as="geometry" />
        </mxCell>
        <mxCell id="RnodLkLtg4VCzTAe2rc--25" value="OFFERS" style="shape=rhombus;perimeter=rhombusPerimeter;whiteSpace=wrap;html=1;align=center;hachureGap=4;fontFamily=Architects Daughter;fontSource=https%3A%2F%2Ffonts.googleapis.com%2Fcss%3Ffamily%3DArchitects%2BDaughter;fontSize=20;rounded=0;fillColor=#bac8d3;strokeColor=#23445d;" parent="1" vertex="1">
          <mxGeometry x="600" y="440" width="120" height="60" as="geometry" />
        </mxCell>
        <mxCell id="RnodLkLtg4VCzTAe2rc--26" value="Course" style="whiteSpace=wrap;html=1;align=center;hachureGap=4;fontFamily=Architects Daughter;fontSource=https%3A%2F%2Ffonts.googleapis.com%2Fcss%3Ffamily%3DArchitects%2BDaughter;fontSize=20;rounded=0;fillColor=#d0cee2;strokeColor=#56517e;" parent="1" vertex="1">
          <mxGeometry x="610" y="570" width="100" height="40" as="geometry" />
        </mxCell>
        <mxCell id="RnodLkLtg4VCzTAe2rc--27" value="SECS" style="shape=rhombus;perimeter=rhombusPerimeter;whiteSpace=wrap;html=1;align=center;hachureGap=4;fontFamily=Architects Daughter;fontSource=https%3A%2F%2Ffonts.googleapis.com%2Fcss%3Ffamily%3DArchitects%2BDaughter;fontSize=20;rounded=0;fillColor=#bac8d3;strokeColor=#23445d;" parent="1" vertex="1">
          <mxGeometry x="600" y="700" width="120" height="60" as="geometry" />
        </mxCell>
        <mxCell id="RnodLkLtg4VCzTAe2rc--29" value="" style="endArrow=none;html=1;rounded=0;hachureGap=4;fontFamily=Architects Daughter;fontSource=https%3A%2F%2Ffonts.googleapis.com%2Fcss%3Ffamily%3DArchitects%2BDaughter;fontSize=16;exitX=0.5;exitY=1;exitDx=0;exitDy=0;entryX=0.5;entryY=0;entryDx=0;entryDy=0;" parent="1" source="RnodLkLtg4VCzTAe2rc--7" target="RnodLkLtg4VCzTAe2rc--6" edge="1">
          <mxGeometry relative="1" as="geometry">
            <mxPoint x="20" y="690" as="sourcePoint" />
            <mxPoint x="180" y="690" as="targetPoint" />
          </mxGeometry>
        </mxCell>
        <mxCell id="RnodLkLtg4VCzTAe2rc--30" value="" style="endArrow=none;html=1;rounded=0;hachureGap=4;fontFamily=Architects Daughter;fontSource=https%3A%2F%2Ffonts.googleapis.com%2Fcss%3Ffamily%3DArchitects%2BDaughter;fontSize=16;exitX=0.5;exitY=1;exitDx=0;exitDy=0;entryX=0.5;entryY=0;entryDx=0;entryDy=0;" parent="1" source="RnodLkLtg4VCzTAe2rc--6" target="vUZei0e0psz_SqlX4e-I-24" edge="1">
          <mxGeometry relative="1" as="geometry">
            <mxPoint x="40" y="900" as="sourcePoint" />
            <mxPoint x="200" y="900" as="targetPoint" />
          </mxGeometry>
        </mxCell>
        <mxCell id="RnodLkLtg4VCzTAe2rc--31" value="" style="endArrow=none;html=1;rounded=0;hachureGap=4;fontFamily=Architects Daughter;fontSource=https%3A%2F%2Ffonts.googleapis.com%2Fcss%3Ffamily%3DArchitects%2BDaughter;fontSize=16;exitX=1;exitY=0.5;exitDx=0;exitDy=0;entryX=0;entryY=0.5;entryDx=0;entryDy=0;" parent="1" source="RnodLkLtg4VCzTAe2rc--2" target="RnodLkLtg4VCzTAe2rc--3" edge="1">
          <mxGeometry relative="1" as="geometry">
            <mxPoint x="310" y="940" as="sourcePoint" />
            <mxPoint x="470" y="940" as="targetPoint" />
          </mxGeometry>
        </mxCell>
        <mxCell id="RnodLkLtg4VCzTAe2rc--37" value="" style="shape=link;html=1;hachureGap=4;fontFamily=Architects Daughter;fontSource=https%3A%2F%2Ffonts.googleapis.com%2Fcss%3Ffamily%3DArchitects%2BDaughter;fontSize=16;exitX=1;exitY=0.5;exitDx=0;exitDy=0;entryX=0;entryY=0.5;entryDx=0;entryDy=0;rounded=0;" parent="1" source="RnodLkLtg4VCzTAe2rc--3" target="RnodLkLtg4VCzTAe2rc--16" edge="1">
          <mxGeometry width="100" relative="1" as="geometry">
            <mxPoint x="540" y="1130" as="sourcePoint" />
            <mxPoint x="640" y="1130" as="targetPoint" />
          </mxGeometry>
        </mxCell>
        <mxCell id="RnodLkLtg4VCzTAe2rc--38" value="" style="shape=link;html=1;hachureGap=4;fontFamily=Architects Daughter;fontSource=https%3A%2F%2Ffonts.googleapis.com%2Fcss%3Ffamily%3DArchitects%2BDaughter;fontSize=16;exitX=1;exitY=0.5;exitDx=0;exitDy=0;entryX=0;entryY=0.5;entryDx=0;entryDy=0;rounded=0;" parent="1" source="RnodLkLtg4VCzTAe2rc--16" target="RnodLkLtg4VCzTAe2rc--5" edge="1">
          <mxGeometry width="100" relative="1" as="geometry">
            <mxPoint x="730" y="1060" as="sourcePoint" />
            <mxPoint x="830" y="1060" as="targetPoint" />
          </mxGeometry>
        </mxCell>
        <mxCell id="RnodLkLtg4VCzTAe2rc--39" value="" style="endArrow=none;html=1;rounded=0;hachureGap=4;fontFamily=Architects Daughter;fontSource=https%3A%2F%2Ffonts.googleapis.com%2Fcss%3Ffamily%3DArchitects%2BDaughter;fontSize=16;exitX=0.5;exitY=1;exitDx=0;exitDy=0;entryX=0.5;entryY=0;entryDx=0;entryDy=0;" parent="1" source="RnodLkLtg4VCzTAe2rc--22" target="RnodLkLtg4VCzTAe2rc--5" edge="1">
          <mxGeometry relative="1" as="geometry">
            <mxPoint x="830" y="900" as="sourcePoint" />
            <mxPoint x="990" y="900" as="targetPoint" />
          </mxGeometry>
        </mxCell>
        <mxCell id="RnodLkLtg4VCzTAe2rc--40" value="" style="endArrow=none;html=1;rounded=0;hachureGap=4;fontFamily=Architects Daughter;fontSource=https%3A%2F%2Ffonts.googleapis.com%2Fcss%3Ffamily%3DArchitects%2BDaughter;fontSize=16;exitX=0.5;exitY=1;exitDx=0;exitDy=0;entryX=0.5;entryY=0;entryDx=0;entryDy=0;" parent="1" source="RnodLkLtg4VCzTAe2rc--23" target="RnodLkLtg4VCzTAe2rc--22" edge="1">
          <mxGeometry relative="1" as="geometry">
            <mxPoint x="1010" y="750" as="sourcePoint" />
            <mxPoint x="1170" y="750" as="targetPoint" />
          </mxGeometry>
        </mxCell>
        <mxCell id="RnodLkLtg4VCzTAe2rc--41" value="" style="shape=link;html=1;hachureGap=4;fontFamily=Architects Daughter;fontSource=https%3A%2F%2Ffonts.googleapis.com%2Fcss%3Ffamily%3DArchitects%2BDaughter;fontSize=16;exitX=0.5;exitY=1;exitDx=0;exitDy=0;entryX=0.5;entryY=0;entryDx=0;entryDy=0;rounded=0;" parent="1" source="RnodLkLtg4VCzTAe2rc--24" target="RnodLkLtg4VCzTAe2rc--23" edge="1">
          <mxGeometry width="100" relative="1" as="geometry">
            <mxPoint x="840" y="490" as="sourcePoint" />
            <mxPoint x="940" y="490" as="targetPoint" />
          </mxGeometry>
        </mxCell>
        <mxCell id="RnodLkLtg4VCzTAe2rc--42" value="" style="endArrow=none;html=1;rounded=0;hachureGap=4;fontFamily=Architects Daughter;fontSource=https%3A%2F%2Ffonts.googleapis.com%2Fcss%3Ffamily%3DArchitects%2BDaughter;fontSize=16;exitX=0.5;exitY=0;exitDx=0;exitDy=0;entryX=0.5;entryY=1;entryDx=0;entryDy=0;" parent="1" source="RnodLkLtg4VCzTAe2rc--24" target="RnodLkLtg4VCzTAe2rc--19" edge="1">
          <mxGeometry relative="1" as="geometry">
            <mxPoint x="580" y="600" as="sourcePoint" />
            <mxPoint x="850" y="290" as="targetPoint" />
          </mxGeometry>
        </mxCell>
        <mxCell id="RnodLkLtg4VCzTAe2rc--43" value="" style="endArrow=none;html=1;rounded=0;hachureGap=4;fontFamily=Architects Daughter;fontSource=https%3A%2F%2Ffonts.googleapis.com%2Fcss%3Ffamily%3DArchitects%2BDaughter;fontSize=16;entryX=0;entryY=0.5;entryDx=0;entryDy=0;exitX=1;exitY=0.5;exitDx=0;exitDy=0;" parent="1" source="RnodLkLtg4VCzTAe2rc--18" target="RnodLkLtg4VCzTAe2rc--19" edge="1">
          <mxGeometry relative="1" as="geometry">
            <mxPoint x="580" y="600" as="sourcePoint" />
            <mxPoint x="740" y="600" as="targetPoint" />
          </mxGeometry>
        </mxCell>
        <mxCell id="RnodLkLtg4VCzTAe2rc--45" value="" style="endArrow=none;html=1;rounded=0;hachureGap=4;fontFamily=Architects Daughter;fontSource=https%3A%2F%2Ffonts.googleapis.com%2Fcss%3Ffamily%3DArchitects%2BDaughter;fontSize=16;entryX=0;entryY=0.5;entryDx=0;entryDy=0;exitX=1;exitY=0.5;exitDx=0;exitDy=0;" parent="1" source="RnodLkLtg4VCzTAe2rc--17" target="RnodLkLtg4VCzTAe2rc--19" edge="1">
          <mxGeometry relative="1" as="geometry">
            <mxPoint x="580" y="600" as="sourcePoint" />
            <mxPoint x="740" y="600" as="targetPoint" />
          </mxGeometry>
        </mxCell>
        <mxCell id="RnodLkLtg4VCzTAe2rc--48" value="" style="endArrow=none;html=1;rounded=0;hachureGap=4;fontFamily=Architects Daughter;fontSource=https%3A%2F%2Ffonts.googleapis.com%2Fcss%3Ffamily%3DArchitects%2BDaughter;fontSize=16;exitX=0;exitY=0.5;exitDx=0;exitDy=0;entryX=1;entryY=0.5;entryDx=0;entryDy=0;" parent="1" source="RnodLkLtg4VCzTAe2rc--13" target="RnodLkLtg4VCzTAe2rc--14" edge="1">
          <mxGeometry relative="1" as="geometry">
            <mxPoint x="580" y="310" as="sourcePoint" />
            <mxPoint x="740" y="310" as="targetPoint" />
          </mxGeometry>
        </mxCell>
        <mxCell id="RnodLkLtg4VCzTAe2rc--49" value="" style="endArrow=none;html=1;rounded=0;hachureGap=4;fontFamily=Architects Daughter;fontSource=https%3A%2F%2Ffonts.googleapis.com%2Fcss%3Ffamily%3DArchitects%2BDaughter;fontSize=16;exitX=1;exitY=0.5;exitDx=0;exitDy=0;" parent="1" source="RnodLkLtg4VCzTAe2rc--15" edge="1">
          <mxGeometry relative="1" as="geometry">
            <mxPoint x="260" y="309.29" as="sourcePoint" />
            <mxPoint x="420" y="309.29" as="targetPoint" />
          </mxGeometry>
        </mxCell>
        <mxCell id="RnodLkLtg4VCzTAe2rc--50" value="" style="endArrow=none;html=1;rounded=0;hachureGap=4;fontFamily=Architects Daughter;fontSource=https%3A%2F%2Ffonts.googleapis.com%2Fcss%3Ffamily%3DArchitects%2BDaughter;fontSize=16;exitX=0;exitY=0.5;exitDx=0;exitDy=0;entryX=1;entryY=0.5;entryDx=0;entryDy=0;" parent="1" source="RnodLkLtg4VCzTAe2rc--15" target="RnodLkLtg4VCzTAe2rc--10" edge="1">
          <mxGeometry relative="1" as="geometry">
            <mxPoint x="580" y="310" as="sourcePoint" />
            <mxPoint x="740" y="310" as="targetPoint" />
          </mxGeometry>
        </mxCell>
        <mxCell id="RnodLkLtg4VCzTAe2rc--51" value="" style="endArrow=none;html=1;rounded=0;hachureGap=4;fontFamily=Architects Daughter;fontSource=https%3A%2F%2Ffonts.googleapis.com%2Fcss%3Ffamily%3DArchitects%2BDaughter;fontSize=16;exitX=0;exitY=0.5;exitDx=0;exitDy=0;entryX=1;entryY=0.5;entryDx=0;entryDy=0;" parent="1" source="RnodLkLtg4VCzTAe2rc--14" target="RnodLkLtg4VCzTAe2rc--10" edge="1">
          <mxGeometry relative="1" as="geometry">
            <mxPoint x="580" y="310" as="sourcePoint" />
            <mxPoint x="740" y="310" as="targetPoint" />
          </mxGeometry>
        </mxCell>
        <mxCell id="RnodLkLtg4VCzTAe2rc--52" value="" style="endArrow=none;html=1;rounded=0;hachureGap=4;fontFamily=Architects Daughter;fontSource=https%3A%2F%2Ffonts.googleapis.com%2Fcss%3Ffamily%3DArchitects%2BDaughter;fontSize=16;exitX=0.5;exitY=1;exitDx=0;exitDy=0;entryX=0.5;entryY=0;entryDx=0;entryDy=0;" parent="1" source="RnodLkLtg4VCzTAe2rc--10" target="RnodLkLtg4VCzTAe2rc--9" edge="1">
          <mxGeometry relative="1" as="geometry">
            <mxPoint x="580" y="600" as="sourcePoint" />
            <mxPoint x="740" y="600" as="targetPoint" />
          </mxGeometry>
        </mxCell>
        <mxCell id="RnodLkLtg4VCzTAe2rc--53" value="" style="endArrow=none;html=1;rounded=0;hachureGap=4;fontFamily=Architects Daughter;fontSource=https%3A%2F%2Ffonts.googleapis.com%2Fcss%3Ffamily%3DArchitects%2BDaughter;fontSize=16;exitX=0.5;exitY=1;exitDx=0;exitDy=0;entryX=0.5;entryY=0;entryDx=0;entryDy=0;" parent="1" source="RnodLkLtg4VCzTAe2rc--9" target="RnodLkLtg4VCzTAe2rc--7" edge="1">
          <mxGeometry relative="1" as="geometry">
            <mxPoint x="580" y="600" as="sourcePoint" />
            <mxPoint x="740" y="600" as="targetPoint" />
          </mxGeometry>
        </mxCell>
        <mxCell id="RnodLkLtg4VCzTAe2rc--54" value="" style="endArrow=none;html=1;rounded=0;hachureGap=4;fontFamily=Architects Daughter;fontSource=https%3A%2F%2Ffonts.googleapis.com%2Fcss%3Ffamily%3DArchitects%2BDaughter;fontSize=16;entryX=0.25;entryY=1;entryDx=0;entryDy=0;exitX=0.5;exitY=0;exitDx=0;exitDy=0;" parent="1" source="RnodLkLtg4VCzTAe2rc--25" target="RnodLkLtg4VCzTAe2rc--19" edge="1">
          <mxGeometry relative="1" as="geometry">
            <mxPoint x="550" y="410" as="sourcePoint" />
            <mxPoint x="710" y="410" as="targetPoint" />
          </mxGeometry>
        </mxCell>
        <mxCell id="RnodLkLtg4VCzTAe2rc--56" value="" style="shape=link;html=1;hachureGap=4;fontFamily=Architects Daughter;fontSource=https%3A%2F%2Ffonts.googleapis.com%2Fcss%3Ffamily%3DArchitects%2BDaughter;fontSize=16;exitX=0.5;exitY=1;exitDx=0;exitDy=0;entryX=0.5;entryY=0;entryDx=0;entryDy=0;rounded=0;" parent="1" source="RnodLkLtg4VCzTAe2rc--25" target="RnodLkLtg4VCzTAe2rc--26" edge="1">
          <mxGeometry width="100" relative="1" as="geometry">
            <mxPoint x="510" y="690" as="sourcePoint" />
            <mxPoint x="610" y="690" as="targetPoint" />
          </mxGeometry>
        </mxCell>
        <mxCell id="RnodLkLtg4VCzTAe2rc--57" value="" style="endArrow=none;html=1;rounded=0;hachureGap=4;fontFamily=Architects Daughter;fontSource=https%3A%2F%2Ffonts.googleapis.com%2Fcss%3Ffamily%3DArchitects%2BDaughter;fontSize=16;exitX=0.5;exitY=1;exitDx=0;exitDy=0;entryX=0.5;entryY=0;entryDx=0;entryDy=0;" parent="1" source="RnodLkLtg4VCzTAe2rc--26" target="RnodLkLtg4VCzTAe2rc--27" edge="1">
          <mxGeometry relative="1" as="geometry">
            <mxPoint x="580" y="600" as="sourcePoint" />
            <mxPoint x="740" y="600" as="targetPoint" />
          </mxGeometry>
        </mxCell>
        <mxCell id="RnodLkLtg4VCzTAe2rc--58" value="" style="endArrow=none;html=1;rounded=0;hachureGap=4;fontFamily=Architects Daughter;fontSource=https%3A%2F%2Ffonts.googleapis.com%2Fcss%3Ffamily%3DArchitects%2BDaughter;fontSize=16;entryX=0.5;entryY=1;entryDx=0;entryDy=0;exitX=0;exitY=0;exitDx=0;exitDy=0;" parent="1" source="RnodLkLtg4VCzTAe2rc--5" target="RnodLkLtg4VCzTAe2rc--27" edge="1">
          <mxGeometry relative="1" as="geometry">
            <mxPoint x="510" y="780" as="sourcePoint" />
            <mxPoint x="670" y="780" as="targetPoint" />
          </mxGeometry>
        </mxCell>
        <mxCell id="RnodLkLtg4VCzTAe2rc--59" value="PREREQ" style="shape=rhombus;double=1;perimeter=rhombusPerimeter;whiteSpace=wrap;html=1;align=center;hachureGap=4;fontFamily=Architects Daughter;fontSource=https%3A%2F%2Ffonts.googleapis.com%2Fcss%3Ffamily%3DArchitects%2BDaughter;fontSize=20;rounded=0;fillColor=#bac8d3;strokeColor=#23445d;" parent="1" vertex="1">
          <mxGeometry x="440" y="565" width="120" height="60" as="geometry" />
        </mxCell>
        <mxCell id="RnodLkLtg4VCzTAe2rc--60" value="" style="shape=link;html=1;hachureGap=4;fontFamily=Architects Daughter;fontSource=https%3A%2F%2Ffonts.googleapis.com%2Fcss%3Ffamily%3DArchitects%2BDaughter;fontSize=16;exitX=0.5;exitY=0;exitDx=0;exitDy=0;entryX=0;entryY=0.5;entryDx=0;entryDy=0;rounded=0;" parent="1" source="RnodLkLtg4VCzTAe2rc--59" target="RnodLkLtg4VCzTAe2rc--26" edge="1">
          <mxGeometry width="100" relative="1" as="geometry">
            <mxPoint x="610" y="600" as="sourcePoint" />
            <mxPoint x="710" y="600" as="targetPoint" />
          </mxGeometry>
        </mxCell>
        <mxCell id="RnodLkLtg4VCzTAe2rc--61" value="" style="shape=link;html=1;hachureGap=4;fontFamily=Architects Daughter;fontSource=https%3A%2F%2Ffonts.googleapis.com%2Fcss%3Ffamily%3DArchitects%2BDaughter;fontSize=16;exitX=0.5;exitY=1;exitDx=0;exitDy=0;entryX=0;entryY=0.75;entryDx=0;entryDy=0;rounded=0;" parent="1" source="RnodLkLtg4VCzTAe2rc--59" target="RnodLkLtg4VCzTAe2rc--26" edge="1">
          <mxGeometry width="100" relative="1" as="geometry">
            <mxPoint x="610" y="600" as="sourcePoint" />
            <mxPoint x="710" y="600" as="targetPoint" />
          </mxGeometry>
        </mxCell>
        <mxCell id="RnodLkLtg4VCzTAe2rc--62" value="" style="endArrow=none;html=1;rounded=0;hachureGap=4;fontFamily=Architects Daughter;fontSource=https%3A%2F%2Ffonts.googleapis.com%2Fcss%3Ffamily%3DArchitects%2BDaughter;fontSize=16;exitX=0.5;exitY=1;exitDx=0;exitDy=0;entryX=0.5;entryY=0;entryDx=0;entryDy=0;" parent="1" source="RnodLkLtg4VCzTAe2rc--12" target="RnodLkLtg4VCzTAe2rc--20" edge="1">
          <mxGeometry relative="1" as="geometry">
            <mxPoint x="580" y="600" as="sourcePoint" />
            <mxPoint x="740" y="600" as="targetPoint" />
          </mxGeometry>
        </mxCell>
        <mxCell id="RnodLkLtg4VCzTAe2rc--63" value="" style="shape=link;html=1;hachureGap=4;fontFamily=Architects Daughter;fontSource=https%3A%2F%2Ffonts.googleapis.com%2Fcss%3Ffamily%3DArchitects%2BDaughter;fontSize=16;exitX=0.5;exitY=1;exitDx=0;exitDy=0;entryX=0;entryY=0.25;entryDx=0;entryDy=0;rounded=0;" parent="1" source="RnodLkLtg4VCzTAe2rc--20" target="RnodLkLtg4VCzTAe2rc--5" edge="1">
          <mxGeometry width="100" relative="1" as="geometry">
            <mxPoint x="610" y="600" as="sourcePoint" />
            <mxPoint x="710" y="600" as="targetPoint" />
          </mxGeometry>
        </mxCell>
        <mxCell id="RnodLkLtg4VCzTAe2rc--64" value="" style="endArrow=none;html=1;rounded=0;hachureGap=4;fontFamily=Architects Daughter;fontSource=https%3A%2F%2Ffonts.googleapis.com%2Fcss%3Ffamily%3DArchitects%2BDaughter;fontSize=16;entryX=0.5;entryY=0;entryDx=0;entryDy=0;exitX=0.5;exitY=1;exitDx=0;exitDy=0;" parent="1" source="RnodLkLtg4VCzTAe2rc--65" target="RnodLkLtg4VCzTAe2rc--10" edge="1">
          <mxGeometry relative="1" as="geometry">
            <mxPoint x="20" y="170" as="sourcePoint" />
            <mxPoint x="130" y="230" as="targetPoint" />
          </mxGeometry>
        </mxCell>
        <mxCell id="RnodLkLtg4VCzTAe2rc--65" value="Size" style="ellipse;whiteSpace=wrap;html=1;align=center;hachureGap=4;fontFamily=Architects Daughter;fontSource=https%3A%2F%2Ffonts.googleapis.com%2Fcss%3Ffamily%3DArchitects%2BDaughter;fontSize=20;rounded=0;" parent="1" vertex="1">
          <mxGeometry x="-30" y="130" width="60" height="40" as="geometry" />
        </mxCell>
        <mxCell id="RnodLkLtg4VCzTAe2rc--68" value="Rm#" style="ellipse;whiteSpace=wrap;html=1;align=center;fontStyle=4;hachureGap=4;fontFamily=Architects Daughter;fontSource=https%3A%2F%2Ffonts.googleapis.com%2Fcss%3Ffamily%3DArchitects%2BDaughter;fontSize=20;rounded=0;" parent="1" vertex="1">
          <mxGeometry x="-70" y="200" width="70" height="40" as="geometry" />
        </mxCell>
        <mxCell id="RnodLkLtg4VCzTAe2rc--71" value="" style="endArrow=none;html=1;rounded=0;hachureGap=4;fontFamily=Architects Daughter;fontSource=https%3A%2F%2Ffonts.googleapis.com%2Fcss%3Ffamily%3DArchitects%2BDaughter;fontSize=16;entryX=0;entryY=0.5;entryDx=0;entryDy=0;exitX=0.983;exitY=0.763;exitDx=0;exitDy=0;exitPerimeter=0;" parent="1" source="RnodLkLtg4VCzTAe2rc--68" target="RnodLkLtg4VCzTAe2rc--10" edge="1">
          <mxGeometry relative="1" as="geometry">
            <mxPoint x="-90" y="260" as="sourcePoint" />
            <mxPoint x="70" y="260" as="targetPoint" />
          </mxGeometry>
        </mxCell>
        <mxCell id="RnodLkLtg4VCzTAe2rc--72" value="(0,1)" style="text;html=1;align=center;verticalAlign=middle;resizable=0;points=[];autosize=1;strokeColor=none;fillColor=none;fontSize=20;fontFamily=Architects Daughter;rotation=0;rounded=0;" parent="1" vertex="1">
          <mxGeometry x="140" y="150" width="60" height="40" as="geometry" />
        </mxCell>
        <mxCell id="RnodLkLtg4VCzTAe2rc--74" value="Grade" style="ellipse;whiteSpace=wrap;html=1;align=center;dashed=1;hachureGap=4;fontFamily=Architects Daughter;fontSource=https%3A%2F%2Ffonts.googleapis.com%2Fcss%3Ffamily%3DArchitects%2BDaughter;fontSize=20;rounded=0;" parent="1" vertex="1">
          <mxGeometry x="990" y="730" width="100" height="40" as="geometry" />
        </mxCell>
        <mxCell id="RnodLkLtg4VCzTAe2rc--75" value="SecID" style="ellipse;whiteSpace=wrap;html=1;align=center;fontStyle=4;hachureGap=4;fontFamily=Architects Daughter;fontSource=https%3A%2F%2Ffonts.googleapis.com%2Fcss%3Ffamily%3DArchitects%2BDaughter;fontSize=20;rounded=0;" parent="1" vertex="1">
          <mxGeometry x="910" y="1060" width="100" height="40" as="geometry" />
        </mxCell>
        <mxCell id="RnodLkLtg4VCzTAe2rc--76" value="Year" style="ellipse;whiteSpace=wrap;html=1;align=center;hachureGap=4;fontFamily=Architects Daughter;fontSource=https%3A%2F%2Ffonts.googleapis.com%2Fcss%3Ffamily%3DArchitects%2BDaughter;fontSize=20;rounded=0;" parent="1" vertex="1">
          <mxGeometry x="1020" y="1000" width="70" height="40" as="geometry" />
        </mxCell>
        <mxCell id="RnodLkLtg4VCzTAe2rc--77" value="Semester" style="ellipse;whiteSpace=wrap;html=1;align=center;hachureGap=4;fontFamily=Architects Daughter;fontSource=https%3A%2F%2Ffonts.googleapis.com%2Fcss%3Ffamily%3DArchitects%2BDaughter;fontSize=20;rounded=0;" parent="1" vertex="1">
          <mxGeometry x="770" y="1060" width="100" height="40" as="geometry" />
        </mxCell>
        <mxCell id="RnodLkLtg4VCzTAe2rc--78" value="Txtbooks" style="ellipse;shape=doubleEllipse;margin=3;whiteSpace=wrap;html=1;align=center;hachureGap=4;fontFamily=Architects Daughter;fontSource=https%3A%2F%2Ffonts.googleapis.com%2Fcss%3Ffamily%3DArchitects%2BDaughter;fontSize=20;rounded=0;" parent="1" vertex="1">
          <mxGeometry x="990" y="910" width="115" height="50" as="geometry" />
        </mxCell>
        <mxCell id="RnodLkLtg4VCzTAe2rc--79" value="Day" style="ellipse;whiteSpace=wrap;html=1;align=center;hachureGap=4;fontFamily=Architects Daughter;fontSource=https%3A%2F%2Ffonts.googleapis.com%2Fcss%3Ffamily%3DArchitects%2BDaughter;fontSize=20;rounded=0;" parent="1" vertex="1">
          <mxGeometry x="210" y="1020" width="70" height="40" as="geometry" />
        </mxCell>
        <mxCell id="RnodLkLtg4VCzTAe2rc--80" value="Ti,me" style="ellipse;whiteSpace=wrap;html=1;align=center;hachureGap=4;fontFamily=Architects Daughter;fontSource=https%3A%2F%2Ffonts.googleapis.com%2Fcss%3Ffamily%3DArchitects%2BDaughter;fontSize=20;rounded=0;" parent="1" vertex="1">
          <mxGeometry x="200" y="1100" width="70" height="40" as="geometry" />
        </mxCell>
        <mxCell id="RnodLkLtg4VCzTAe2rc--81" value="Start_Time" style="ellipse;whiteSpace=wrap;html=1;align=center;hachureGap=4;fontFamily=Architects Daughter;fontSource=https%3A%2F%2Ffonts.googleapis.com%2Fcss%3Ffamily%3DArchitects%2BDaughter;fontSize=20;rounded=0;" parent="1" vertex="1">
          <mxGeometry x="510" y="1020" width="110" height="40" as="geometry" />
        </mxCell>
        <mxCell id="RnodLkLtg4VCzTAe2rc--82" value="End-Time" style="ellipse;whiteSpace=wrap;html=1;align=center;hachureGap=4;fontFamily=Architects Daughter;fontSource=https%3A%2F%2Ffonts.googleapis.com%2Fcss%3Ffamily%3DArchitects%2BDaughter;fontSize=20;rounded=0;" parent="1" vertex="1">
          <mxGeometry x="430" y="1090" width="100" height="40" as="geometry" />
        </mxCell>
        <mxCell id="RnodLkLtg4VCzTAe2rc--86" value="Rm#" style="ellipse;whiteSpace=wrap;html=1;align=center;fontStyle=4;hachureGap=4;fontFamily=Architects Daughter;fontSource=https%3A%2F%2Ffonts.googleapis.com%2Fcss%3Ffamily%3DArchitects%2BDaughter;fontSize=20;rounded=0;" parent="1" vertex="1">
          <mxGeometry x="-50" y="1010" width="70" height="40" as="geometry" />
        </mxCell>
        <mxCell id="RnodLkLtg4VCzTAe2rc--87" value="#OfSeats" style="ellipse;whiteSpace=wrap;html=1;align=center;hachureGap=4;fontFamily=Architects Daughter;fontSource=https%3A%2F%2Ffonts.googleapis.com%2Fcss%3Ffamily%3DArchitects%2BDaughter;fontSize=20;rounded=0;" parent="1" vertex="1">
          <mxGeometry x="-60" y="930" width="100" height="40" as="geometry" />
        </mxCell>
        <mxCell id="RnodLkLtg4VCzTAe2rc--88" value="B#" style="ellipse;whiteSpace=wrap;html=1;align=center;fontStyle=4;hachureGap=4;fontFamily=Architects Daughter;fontSource=https%3A%2F%2Ffonts.googleapis.com%2Fcss%3Ffamily%3DArchitects%2BDaughter;fontSize=20;rounded=0;" parent="1" vertex="1">
          <mxGeometry x="-50" y="620" width="60" height="40" as="geometry" />
        </mxCell>
        <mxCell id="RnodLkLtg4VCzTAe2rc--89" value="B_Name&lt;span style=&quot;white-space: pre;&quot;&gt;&#x9;&lt;/span&gt;" style="ellipse;whiteSpace=wrap;html=1;align=center;fontStyle=4;hachureGap=4;fontFamily=Architects Daughter;fontSource=https%3A%2F%2Ffonts.googleapis.com%2Fcss%3Ffamily%3DArchitects%2BDaughter;fontSize=20;rounded=0;" parent="1" vertex="1">
          <mxGeometry x="-70" y="550" width="100" height="40" as="geometry" />
        </mxCell>
        <mxCell id="RnodLkLtg4VCzTAe2rc--90" value="E#" style="ellipse;whiteSpace=wrap;html=1;align=center;fontStyle=4;hachureGap=4;fontFamily=Architects Daughter;fontSource=https%3A%2F%2Ffonts.googleapis.com%2Fcss%3Ffamily%3DArchitects%2BDaughter;fontSize=20;rounded=0;" parent="1" vertex="1">
          <mxGeometry x="465" y="-10" width="70" height="40" as="geometry" />
        </mxCell>
        <mxCell id="RnodLkLtg4VCzTAe2rc--91" value="P#" style="ellipse;shape=doubleEllipse;margin=3;whiteSpace=wrap;html=1;align=center;hachureGap=4;fontFamily=Architects Daughter;fontSource=https%3A%2F%2Ffonts.googleapis.com%2Fcss%3Ffamily%3DArchitects%2BDaughter;fontSize=20;rounded=0;" parent="1" vertex="1">
          <mxGeometry x="550" y="20" width="60" height="40" as="geometry" />
        </mxCell>
        <mxCell id="RnodLkLtg4VCzTAe2rc--92" value="Name" style="ellipse;whiteSpace=wrap;html=1;align=center;hachureGap=4;fontFamily=Architects Daughter;fontSource=https%3A%2F%2Ffonts.googleapis.com%2Fcss%3Ffamily%3DArchitects%2BDaughter;fontSize=20;rounded=0;" parent="1" vertex="1">
          <mxGeometry x="385" y="20" width="80" height="40" as="geometry" />
        </mxCell>
        <mxCell id="RnodLkLtg4VCzTAe2rc--93" value="Na,me" style="ellipse;whiteSpace=wrap;html=1;align=center;hachureGap=4;fontFamily=Architects Daughter;fontSource=https%3A%2F%2Ffonts.googleapis.com%2Fcss%3Ffamily%3DArchitects%2BDaughter;fontSize=20;rounded=0;" parent="1" vertex="1">
          <mxGeometry x="365" y="230" width="70" height="40" as="geometry" />
        </mxCell>
        <mxCell id="RnodLkLtg4VCzTAe2rc--94" value="E#" style="ellipse;whiteSpace=wrap;html=1;align=center;fontStyle=4;hachureGap=4;fontFamily=Architects Daughter;fontSource=https%3A%2F%2Ffonts.googleapis.com%2Fcss%3Ffamily%3DArchitects%2BDaughter;fontSize=20;rounded=0;" parent="1" vertex="1">
          <mxGeometry x="450" y="205" width="60" height="40" as="geometry" />
        </mxCell>
        <mxCell id="RnodLkLtg4VCzTAe2rc--95" value="P#" style="ellipse;shape=doubleEllipse;margin=3;whiteSpace=wrap;html=1;align=center;hachureGap=4;fontFamily=Architects Daughter;fontSource=https%3A%2F%2Ffonts.googleapis.com%2Fcss%3Ffamily%3DArchitects%2BDaughter;fontSize=20;rounded=0;" parent="1" vertex="1">
          <mxGeometry x="510" y="240" width="60" height="40" as="geometry" />
        </mxCell>
        <mxCell id="RnodLkLtg4VCzTAe2rc--96" value="D#" style="ellipse;whiteSpace=wrap;html=1;align=center;fontStyle=4;hachureGap=4;fontFamily=Architects Daughter;fontSource=https%3A%2F%2Ffonts.googleapis.com%2Fcss%3Ffamily%3DArchitects%2BDaughter;fontSize=20;rounded=0;" parent="1" vertex="1">
          <mxGeometry x="900" y="130" width="70" height="40" as="geometry" />
        </mxCell>
        <mxCell id="RnodLkLtg4VCzTAe2rc--97" value="D_Name" style="ellipse;whiteSpace=wrap;html=1;align=center;fontStyle=4;hachureGap=4;fontFamily=Architects Daughter;fontSource=https%3A%2F%2Ffonts.googleapis.com%2Fcss%3Ffamily%3DArchitects%2BDaughter;fontSize=20;rounded=0;" parent="1" vertex="1">
          <mxGeometry x="970" y="200" width="100" height="40" as="geometry" />
        </mxCell>
        <mxCell id="RnodLkLtg4VCzTAe2rc--98" value="S#" style="ellipse;whiteSpace=wrap;html=1;align=center;fontStyle=4;hachureGap=4;fontFamily=Architects Daughter;fontSource=https%3A%2F%2Ffonts.googleapis.com%2Fcss%3Ffamily%3DArchitects%2BDaughter;fontSize=20;rounded=0;" parent="1" vertex="1">
          <mxGeometry x="970" y="600" width="60" height="40" as="geometry" />
        </mxCell>
        <mxCell id="RnodLkLtg4VCzTAe2rc--99" value="Name" style="ellipse;whiteSpace=wrap;html=1;align=center;hachureGap=4;fontFamily=Architects Daughter;fontSource=https%3A%2F%2Ffonts.googleapis.com%2Fcss%3Ffamily%3DArchitects%2BDaughter;fontSize=20;rounded=0;" parent="1" vertex="1">
          <mxGeometry x="970" y="525" width="60" height="40" as="geometry" />
        </mxCell>
        <mxCell id="RnodLkLtg4VCzTAe2rc--100" value="C#" style="ellipse;whiteSpace=wrap;html=1;align=center;fontStyle=4;hachureGap=4;fontFamily=Architects Daughter;fontSource=https%3A%2F%2Ffonts.googleapis.com%2Fcss%3Ffamily%3DArchitects%2BDaughter;fontSize=20;rounded=0;" parent="1" vertex="1">
          <mxGeometry x="720" y="620" width="60" height="40" as="geometry" />
        </mxCell>
        <mxCell id="RnodLkLtg4VCzTAe2rc--101" value="Hours" style="ellipse;whiteSpace=wrap;html=1;align=center;hachureGap=4;fontFamily=Architects Daughter;fontSource=https%3A%2F%2Ffonts.googleapis.com%2Fcss%3Ffamily%3DArchitects%2BDaughter;fontSize=20;rounded=0;" parent="1" vertex="1">
          <mxGeometry x="710" y="525" width="80" height="40" as="geometry" />
        </mxCell>
        <mxCell id="RnodLkLtg4VCzTAe2rc--102" value="" style="endArrow=none;html=1;rounded=0;hachureGap=4;fontFamily=Architects Daughter;fontSource=https%3A%2F%2Ffonts.googleapis.com%2Fcss%3Ffamily%3DArchitects%2BDaughter;fontSize=16;exitX=0.5;exitY=1;exitDx=0;exitDy=0;entryX=0;entryY=0.25;entryDx=0;entryDy=0;" parent="1" source="RnodLkLtg4VCzTAe2rc--87" target="vUZei0e0psz_SqlX4e-I-24" edge="1">
          <mxGeometry relative="1" as="geometry">
            <mxPoint x="-140" y="830" as="sourcePoint" />
            <mxPoint x="20" y="830" as="targetPoint" />
          </mxGeometry>
        </mxCell>
        <mxCell id="RnodLkLtg4VCzTAe2rc--103" value="" style="endArrow=none;html=1;rounded=0;hachureGap=4;fontFamily=Architects Daughter;fontSource=https%3A%2F%2Ffonts.googleapis.com%2Fcss%3Ffamily%3DArchitects%2BDaughter;fontSize=16;exitX=1;exitY=0.5;exitDx=0;exitDy=0;entryX=0;entryY=0.75;entryDx=0;entryDy=0;" parent="1" source="RnodLkLtg4VCzTAe2rc--86" target="vUZei0e0psz_SqlX4e-I-24" edge="1">
          <mxGeometry relative="1" as="geometry">
            <mxPoint x="10" y="1080" as="sourcePoint" />
            <mxPoint x="170" y="1080" as="targetPoint" />
          </mxGeometry>
        </mxCell>
        <mxCell id="RnodLkLtg4VCzTAe2rc--104" value="" style="endArrow=none;html=1;rounded=0;hachureGap=4;fontFamily=Architects Daughter;fontSource=https%3A%2F%2Ffonts.googleapis.com%2Fcss%3Ffamily%3DArchitects%2BDaughter;fontSize=16;exitX=1;exitY=0.5;exitDx=0;exitDy=0;entryX=0;entryY=0.75;entryDx=0;entryDy=0;" parent="1" source="RnodLkLtg4VCzTAe2rc--88" target="RnodLkLtg4VCzTAe2rc--7" edge="1">
          <mxGeometry relative="1" as="geometry">
            <mxPoint x="-20" y="730" as="sourcePoint" />
            <mxPoint x="140" y="730" as="targetPoint" />
          </mxGeometry>
        </mxCell>
        <mxCell id="RnodLkLtg4VCzTAe2rc--105" value="" style="endArrow=none;html=1;rounded=0;hachureGap=4;fontFamily=Architects Daughter;fontSource=https%3A%2F%2Ffonts.googleapis.com%2Fcss%3Ffamily%3DArchitects%2BDaughter;fontSize=16;exitX=0.945;exitY=0.75;exitDx=0;exitDy=0;exitPerimeter=0;entryX=0;entryY=0.5;entryDx=0;entryDy=0;" parent="1" source="RnodLkLtg4VCzTAe2rc--89" target="RnodLkLtg4VCzTAe2rc--7" edge="1">
          <mxGeometry relative="1" as="geometry">
            <mxPoint x="-220" y="610" as="sourcePoint" />
            <mxPoint x="-60" y="610" as="targetPoint" />
          </mxGeometry>
        </mxCell>
        <mxCell id="RnodLkLtg4VCzTAe2rc--106" value="" style="endArrow=none;html=1;rounded=0;hachureGap=4;fontFamily=Architects Daughter;fontSource=https%3A%2F%2Ffonts.googleapis.com%2Fcss%3Ffamily%3DArchitects%2BDaughter;fontSize=16;exitX=0.5;exitY=1;exitDx=0;exitDy=0;entryX=0.25;entryY=0;entryDx=0;entryDy=0;" parent="1" source="RnodLkLtg4VCzTAe2rc--92" target="RnodLkLtg4VCzTAe2rc--13" edge="1">
          <mxGeometry relative="1" as="geometry">
            <mxPoint x="230" y="30" as="sourcePoint" />
            <mxPoint x="390" y="30" as="targetPoint" />
          </mxGeometry>
        </mxCell>
        <mxCell id="RnodLkLtg4VCzTAe2rc--107" value="" style="endArrow=none;html=1;rounded=0;hachureGap=4;fontFamily=Architects Daughter;fontSource=https%3A%2F%2Ffonts.googleapis.com%2Fcss%3Ffamily%3DArchitects%2BDaughter;fontSize=16;exitX=0.5;exitY=1;exitDx=0;exitDy=0;entryX=0.5;entryY=0;entryDx=0;entryDy=0;" parent="1" source="RnodLkLtg4VCzTAe2rc--90" target="RnodLkLtg4VCzTAe2rc--13" edge="1">
          <mxGeometry relative="1" as="geometry">
            <mxPoint x="20" y="20" as="sourcePoint" />
            <mxPoint x="180" y="20" as="targetPoint" />
          </mxGeometry>
        </mxCell>
        <mxCell id="RnodLkLtg4VCzTAe2rc--108" value="" style="endArrow=none;html=1;rounded=0;hachureGap=4;fontFamily=Architects Daughter;fontSource=https%3A%2F%2Ffonts.googleapis.com%2Fcss%3Ffamily%3DArchitects%2BDaughter;fontSize=16;exitX=0.325;exitY=1.031;exitDx=0;exitDy=0;exitPerimeter=0;entryX=0.75;entryY=0;entryDx=0;entryDy=0;" parent="1" source="RnodLkLtg4VCzTAe2rc--91" target="RnodLkLtg4VCzTAe2rc--13" edge="1">
          <mxGeometry relative="1" as="geometry">
            <mxPoint x="120" y="-10" as="sourcePoint" />
            <mxPoint x="280" y="-10" as="targetPoint" />
          </mxGeometry>
        </mxCell>
        <mxCell id="RnodLkLtg4VCzTAe2rc--109" value="" style="endArrow=none;html=1;rounded=0;hachureGap=4;fontFamily=Architects Daughter;fontSource=https%3A%2F%2Ffonts.googleapis.com%2Fcss%3Ffamily%3DArchitects%2BDaughter;fontSize=16;exitX=0.5;exitY=1;exitDx=0;exitDy=0;entryX=0.75;entryY=0;entryDx=0;entryDy=0;" parent="1" source="RnodLkLtg4VCzTAe2rc--95" target="RnodLkLtg4VCzTAe2rc--12" edge="1">
          <mxGeometry relative="1" as="geometry">
            <mxPoint x="600" y="220" as="sourcePoint" />
            <mxPoint x="760" y="220" as="targetPoint" />
          </mxGeometry>
        </mxCell>
        <mxCell id="RnodLkLtg4VCzTAe2rc--110" value="" style="endArrow=none;html=1;rounded=0;hachureGap=4;fontFamily=Architects Daughter;fontSource=https%3A%2F%2Ffonts.googleapis.com%2Fcss%3Ffamily%3DArchitects%2BDaughter;fontSize=16;exitX=0.5;exitY=1;exitDx=0;exitDy=0;entryX=0.595;entryY=-0.031;entryDx=0;entryDy=0;entryPerimeter=0;" parent="1" source="RnodLkLtg4VCzTAe2rc--94" target="RnodLkLtg4VCzTAe2rc--12" edge="1">
          <mxGeometry relative="1" as="geometry">
            <mxPoint x="-30" y="10" as="sourcePoint" />
            <mxPoint x="130" y="10" as="targetPoint" />
          </mxGeometry>
        </mxCell>
        <mxCell id="RnodLkLtg4VCzTAe2rc--111" value="" style="endArrow=none;html=1;rounded=0;hachureGap=4;fontFamily=Architects Daughter;fontSource=https%3A%2F%2Ffonts.googleapis.com%2Fcss%3Ffamily%3DArchitects%2BDaughter;fontSize=16;exitX=0.5;exitY=1;exitDx=0;exitDy=0;entryX=0.25;entryY=0;entryDx=0;entryDy=0;" parent="1" source="RnodLkLtg4VCzTAe2rc--93" target="RnodLkLtg4VCzTAe2rc--12" edge="1">
          <mxGeometry relative="1" as="geometry">
            <mxPoint x="-40" y="90" as="sourcePoint" />
            <mxPoint x="120" y="90" as="targetPoint" />
          </mxGeometry>
        </mxCell>
        <mxCell id="RnodLkLtg4VCzTAe2rc--112" value="" style="endArrow=none;html=1;rounded=0;hachureGap=4;fontFamily=Architects Daughter;fontSource=https%3A%2F%2Ffonts.googleapis.com%2Fcss%3Ffamily%3DArchitects%2BDaughter;fontSize=16;exitX=0.5;exitY=1;exitDx=0;exitDy=0;entryX=0.75;entryY=0;entryDx=0;entryDy=0;" parent="1" source="RnodLkLtg4VCzTAe2rc--96" target="RnodLkLtg4VCzTAe2rc--19" edge="1">
          <mxGeometry relative="1" as="geometry">
            <mxPoint x="770" y="50" as="sourcePoint" />
            <mxPoint x="930" y="50" as="targetPoint" />
          </mxGeometry>
        </mxCell>
        <mxCell id="RnodLkLtg4VCzTAe2rc--113" value="" style="endArrow=none;html=1;rounded=0;hachureGap=4;fontFamily=Architects Daughter;fontSource=https%3A%2F%2Ffonts.googleapis.com%2Fcss%3Ffamily%3DArchitects%2BDaughter;fontSize=16;exitX=0.407;exitY=0.969;exitDx=0;exitDy=0;exitPerimeter=0;entryX=1;entryY=1;entryDx=0;entryDy=0;" parent="1" source="RnodLkLtg4VCzTAe2rc--97" target="RnodLkLtg4VCzTAe2rc--19" edge="1">
          <mxGeometry relative="1" as="geometry">
            <mxPoint x="910" y="90" as="sourcePoint" />
            <mxPoint x="1070" y="90" as="targetPoint" />
          </mxGeometry>
        </mxCell>
        <mxCell id="RnodLkLtg4VCzTAe2rc--114" value="" style="endArrow=none;html=1;rounded=0;hachureGap=4;fontFamily=Architects Daughter;fontSource=https%3A%2F%2Ffonts.googleapis.com%2Fcss%3Ffamily%3DArchitects%2BDaughter;fontSize=16;exitX=0.5;exitY=1;exitDx=0;exitDy=0;entryX=1;entryY=0.25;entryDx=0;entryDy=0;" parent="1" source="RnodLkLtg4VCzTAe2rc--99" target="RnodLkLtg4VCzTAe2rc--23" edge="1">
          <mxGeometry relative="1" as="geometry">
            <mxPoint x="1210" y="480" as="sourcePoint" />
            <mxPoint x="1370" y="480" as="targetPoint" />
          </mxGeometry>
        </mxCell>
        <mxCell id="RnodLkLtg4VCzTAe2rc--115" value="" style="endArrow=none;html=1;rounded=0;hachureGap=4;fontFamily=Architects Daughter;fontSource=https%3A%2F%2Ffonts.googleapis.com%2Fcss%3Ffamily%3DArchitects%2BDaughter;fontSize=16;exitX=0.5;exitY=1;exitDx=0;exitDy=0;entryX=1;entryY=0.75;entryDx=0;entryDy=0;" parent="1" source="RnodLkLtg4VCzTAe2rc--98" target="RnodLkLtg4VCzTAe2rc--23" edge="1">
          <mxGeometry relative="1" as="geometry">
            <mxPoint x="1110" y="770" as="sourcePoint" />
            <mxPoint x="1270" y="770" as="targetPoint" />
          </mxGeometry>
        </mxCell>
        <mxCell id="RnodLkLtg4VCzTAe2rc--116" value="" style="endArrow=none;html=1;rounded=0;hachureGap=4;fontFamily=Architects Daughter;fontSource=https%3A%2F%2Ffonts.googleapis.com%2Fcss%3Ffamily%3DArchitects%2BDaughter;fontSize=16;exitX=1;exitY=1;exitDx=0;exitDy=0;entryX=0;entryY=1;entryDx=0;entryDy=0;" parent="1" source="RnodLkLtg4VCzTAe2rc--22" target="RnodLkLtg4VCzTAe2rc--74" edge="1">
          <mxGeometry relative="1" as="geometry">
            <mxPoint x="1110" y="920" as="sourcePoint" />
            <mxPoint x="1270" y="920" as="targetPoint" />
          </mxGeometry>
        </mxCell>
        <mxCell id="RnodLkLtg4VCzTAe2rc--117" value="" style="endArrow=none;html=1;rounded=0;hachureGap=4;fontFamily=Architects Daughter;fontSource=https%3A%2F%2Ffonts.googleapis.com%2Fcss%3Ffamily%3DArchitects%2BDaughter;fontSize=16;exitX=1;exitY=0.25;exitDx=0;exitDy=0;entryX=0;entryY=1;entryDx=0;entryDy=0;" parent="1" source="RnodLkLtg4VCzTAe2rc--5" target="RnodLkLtg4VCzTAe2rc--78" edge="1">
          <mxGeometry relative="1" as="geometry">
            <mxPoint x="850" y="1140" as="sourcePoint" />
            <mxPoint x="1010" y="1140" as="targetPoint" />
          </mxGeometry>
        </mxCell>
        <mxCell id="RnodLkLtg4VCzTAe2rc--118" value="" style="endArrow=none;html=1;rounded=0;hachureGap=4;fontFamily=Architects Daughter;fontSource=https%3A%2F%2Ffonts.googleapis.com%2Fcss%3Ffamily%3DArchitects%2BDaughter;fontSize=16;exitX=1;exitY=0.75;exitDx=0;exitDy=0;entryX=0;entryY=0.5;entryDx=0;entryDy=0;" parent="1" source="RnodLkLtg4VCzTAe2rc--5" target="RnodLkLtg4VCzTAe2rc--76" edge="1">
          <mxGeometry relative="1" as="geometry">
            <mxPoint x="960" y="1230" as="sourcePoint" />
            <mxPoint x="1120" y="1230" as="targetPoint" />
          </mxGeometry>
        </mxCell>
        <mxCell id="RnodLkLtg4VCzTAe2rc--119" value="" style="endArrow=none;html=1;rounded=0;hachureGap=4;fontFamily=Architects Daughter;fontSource=https%3A%2F%2Ffonts.googleapis.com%2Fcss%3Ffamily%3DArchitects%2BDaughter;fontSize=16;exitX=0.75;exitY=1;exitDx=0;exitDy=0;" parent="1" source="RnodLkLtg4VCzTAe2rc--5" target="RnodLkLtg4VCzTAe2rc--75" edge="1">
          <mxGeometry relative="1" as="geometry">
            <mxPoint x="790" y="1230" as="sourcePoint" />
            <mxPoint x="950" y="1230" as="targetPoint" />
          </mxGeometry>
        </mxCell>
        <mxCell id="RnodLkLtg4VCzTAe2rc--120" value="" style="endArrow=none;html=1;rounded=0;hachureGap=4;fontFamily=Architects Daughter;fontSource=https%3A%2F%2Ffonts.googleapis.com%2Fcss%3Ffamily%3DArchitects%2BDaughter;fontSize=16;exitX=0.345;exitY=1.156;exitDx=0;exitDy=0;exitPerimeter=0;entryX=0.695;entryY=-0.062;entryDx=0;entryDy=0;entryPerimeter=0;" parent="1" source="RnodLkLtg4VCzTAe2rc--5" target="RnodLkLtg4VCzTAe2rc--77" edge="1">
          <mxGeometry relative="1" as="geometry">
            <mxPoint x="800" y="1210" as="sourcePoint" />
            <mxPoint x="960" y="1210" as="targetPoint" />
          </mxGeometry>
        </mxCell>
        <mxCell id="RnodLkLtg4VCzTAe2rc--121" value="" style="endArrow=none;html=1;rounded=0;hachureGap=4;fontFamily=Architects Daughter;fontSource=https%3A%2F%2Ffonts.googleapis.com%2Fcss%3Ffamily%3DArchitects%2BDaughter;fontSize=16;exitX=0.75;exitY=1;exitDx=0;exitDy=0;entryX=0;entryY=0;entryDx=0;entryDy=0;" parent="1" source="RnodLkLtg4VCzTAe2rc--3" target="RnodLkLtg4VCzTAe2rc--81" edge="1">
          <mxGeometry relative="1" as="geometry">
            <mxPoint x="420" y="1180" as="sourcePoint" />
            <mxPoint x="580" y="1180" as="targetPoint" />
          </mxGeometry>
        </mxCell>
        <mxCell id="RnodLkLtg4VCzTAe2rc--122" value="" style="endArrow=none;html=1;rounded=0;hachureGap=4;fontFamily=Architects Daughter;fontSource=https%3A%2F%2Ffonts.googleapis.com%2Fcss%3Ffamily%3DArchitects%2BDaughter;fontSize=16;exitX=0.5;exitY=1;exitDx=0;exitDy=0;" parent="1" source="RnodLkLtg4VCzTAe2rc--3" target="RnodLkLtg4VCzTAe2rc--82" edge="1">
          <mxGeometry relative="1" as="geometry">
            <mxPoint x="470" y="1240" as="sourcePoint" />
            <mxPoint x="630" y="1240" as="targetPoint" />
          </mxGeometry>
        </mxCell>
        <mxCell id="RnodLkLtg4VCzTAe2rc--123" value="" style="endArrow=none;html=1;rounded=0;hachureGap=4;fontFamily=Architects Daughter;fontSource=https%3A%2F%2Ffonts.googleapis.com%2Fcss%3Ffamily%3DArchitects%2BDaughter;fontSize=16;exitX=0.25;exitY=1;exitDx=0;exitDy=0;" parent="1" source="RnodLkLtg4VCzTAe2rc--3" edge="1">
          <mxGeometry relative="1" as="geometry">
            <mxPoint x="320" y="1200" as="sourcePoint" />
            <mxPoint x="425.7567719431886" y="1021.6170993996129" as="targetPoint" />
          </mxGeometry>
        </mxCell>
        <mxCell id="RnodLkLtg4VCzTAe2rc--124" value="" style="endArrow=none;html=1;rounded=0;hachureGap=4;fontFamily=Architects Daughter;fontSource=https%3A%2F%2Ffonts.googleapis.com%2Fcss%3Ffamily%3DArchitects%2BDaughter;fontSize=16;entryX=1;entryY=0;entryDx=0;entryDy=0;" parent="1" source="RnodLkLtg4VCzTAe2rc--2" target="RnodLkLtg4VCzTAe2rc--79" edge="1">
          <mxGeometry relative="1" as="geometry">
            <mxPoint x="420" y="1160" as="sourcePoint" />
            <mxPoint x="580" y="1160" as="targetPoint" />
          </mxGeometry>
        </mxCell>
        <mxCell id="RnodLkLtg4VCzTAe2rc--125" value="" style="endArrow=none;html=1;rounded=0;hachureGap=4;fontFamily=Architects Daughter;fontSource=https%3A%2F%2Ffonts.googleapis.com%2Fcss%3Ffamily%3DArchitects%2BDaughter;fontSize=16;exitX=0.35;exitY=1.031;exitDx=0;exitDy=0;exitPerimeter=0;entryX=0.5;entryY=0;entryDx=0;entryDy=0;" parent="1" source="RnodLkLtg4VCzTAe2rc--79" target="RnodLkLtg4VCzTAe2rc--80" edge="1">
          <mxGeometry relative="1" as="geometry">
            <mxPoint x="320" y="1210" as="sourcePoint" />
            <mxPoint x="480" y="1210" as="targetPoint" />
          </mxGeometry>
        </mxCell>
        <mxCell id="RnodLkLtg4VCzTAe2rc--126" value="" style="endArrow=none;html=1;rounded=0;hachureGap=4;fontFamily=Architects Daughter;fontSource=https%3A%2F%2Ffonts.googleapis.com%2Fcss%3Ffamily%3DArchitects%2BDaughter;fontSize=16;exitX=1;exitY=1;exitDx=0;exitDy=0;entryX=0.304;entryY=0.063;entryDx=0;entryDy=0;entryPerimeter=0;" parent="1" source="RnodLkLtg4VCzTAe2rc--26" target="RnodLkLtg4VCzTAe2rc--100" edge="1">
          <mxGeometry relative="1" as="geometry">
            <mxPoint x="720" y="730" as="sourcePoint" />
            <mxPoint x="880" y="730" as="targetPoint" />
          </mxGeometry>
        </mxCell>
        <mxCell id="RnodLkLtg4VCzTAe2rc--127" value="" style="endArrow=none;html=1;rounded=0;hachureGap=4;fontFamily=Architects Daughter;fontSource=https%3A%2F%2Ffonts.googleapis.com%2Fcss%3Ffamily%3DArchitects%2BDaughter;fontSize=16;exitX=1;exitY=0.5;exitDx=0;exitDy=0;entryX=0.337;entryY=1.094;entryDx=0;entryDy=0;entryPerimeter=0;" parent="1" source="RnodLkLtg4VCzTAe2rc--26" target="RnodLkLtg4VCzTAe2rc--101" edge="1">
          <mxGeometry relative="1" as="geometry">
            <mxPoint x="690" y="700" as="sourcePoint" />
            <mxPoint x="850" y="700" as="targetPoint" />
          </mxGeometry>
        </mxCell>
        <mxCell id="RnodLkLtg4VCzTAe2rc--128" value="(1,1)" style="text;html=1;align=center;verticalAlign=middle;resizable=0;points=[];autosize=1;strokeColor=none;fillColor=none;fontSize=20;fontFamily=Architects Daughter;rounded=0;" parent="1" vertex="1">
          <mxGeometry x="535" y="313" width="50" height="40" as="geometry" />
        </mxCell>
        <mxCell id="RnodLkLtg4VCzTAe2rc--129" value="" style="shape=link;html=1;rounded=0;hachureGap=4;fontFamily=Architects Daughter;fontSource=https%3A%2F%2Ffonts.googleapis.com%2Fcss%3Ffamily%3DArchitects%2BDaughter;fontSize=16;exitX=1;exitY=0.5;exitDx=0;exitDy=0;entryX=0;entryY=0.5;entryDx=0;entryDy=0;" parent="1" source="RnodLkLtg4VCzTAe2rc--13" target="RnodLkLtg4VCzTAe2rc--17" edge="1">
          <mxGeometry width="100" relative="1" as="geometry">
            <mxPoint x="550" y="180" as="sourcePoint" />
            <mxPoint x="650" y="180" as="targetPoint" />
          </mxGeometry>
        </mxCell>
        <mxCell id="RnodLkLtg4VCzTAe2rc--130" value="" style="shape=link;html=1;rounded=0;hachureGap=4;fontFamily=Architects Daughter;fontSource=https%3A%2F%2Ffonts.googleapis.com%2Fcss%3Ffamily%3DArchitects%2BDaughter;fontSize=16;exitX=1;exitY=0.5;exitDx=0;exitDy=0;" parent="1" source="RnodLkLtg4VCzTAe2rc--12" target="RnodLkLtg4VCzTAe2rc--18" edge="1">
          <mxGeometry width="100" relative="1" as="geometry">
            <mxPoint x="570" y="380" as="sourcePoint" />
            <mxPoint x="670" y="380" as="targetPoint" />
          </mxGeometry>
        </mxCell>
        <mxCell id="RnodLkLtg4VCzTAe2rc--131" value="(1,1)" style="text;html=1;align=center;verticalAlign=middle;resizable=0;points=[];autosize=1;strokeColor=none;fillColor=none;fontSize=20;fontFamily=Architects Daughter;rounded=0;" parent="1" vertex="1">
          <mxGeometry x="555" y="93" width="50" height="40" as="geometry" />
        </mxCell>
        <mxCell id="RnodLkLtg4VCzTAe2rc--132" value="(1,1)" style="text;html=1;align=center;verticalAlign=middle;resizable=0;points=[];autosize=1;strokeColor=none;fillColor=none;fontSize=20;fontFamily=Architects Daughter;rounded=0;" parent="1" vertex="1">
          <mxGeometry x="365" y="90" width="50" height="40" as="geometry" />
        </mxCell>
        <mxCell id="RnodLkLtg4VCzTAe2rc--133" value="(1,1)" style="text;html=1;align=center;verticalAlign=middle;resizable=0;points=[];autosize=1;strokeColor=none;fillColor=none;fontSize=20;fontFamily=Architects Daughter;rounded=0;" parent="1" vertex="1">
          <mxGeometry x="365" y="303" width="50" height="40" as="geometry" />
        </mxCell>
        <mxCell id="RnodLkLtg4VCzTAe2rc--134" value="(0,4)" style="text;html=1;align=center;verticalAlign=middle;resizable=0;points=[];autosize=1;strokeColor=none;fillColor=none;fontSize=20;fontFamily=Architects Daughter;rounded=0;" parent="1" vertex="1">
          <mxGeometry x="125" y="273" width="70" height="40" as="geometry" />
        </mxCell>
        <mxCell id="RnodLkLtg4VCzTAe2rc--135" value="(1,1)" style="text;html=1;align=center;verticalAlign=middle;resizable=0;points=[];autosize=1;strokeColor=none;fillColor=none;fontSize=20;fontFamily=Architects Daughter;rounded=0;" parent="1" vertex="1">
          <mxGeometry x="35" y="303" width="50" height="40" as="geometry" />
        </mxCell>
        <mxCell id="RnodLkLtg4VCzTAe2rc--136" value="(1,N)" style="text;html=1;align=center;verticalAlign=middle;resizable=0;points=[];autosize=1;strokeColor=none;fillColor=none;fontSize=20;fontFamily=Architects Daughter;rounded=0;" parent="1" vertex="1">
          <mxGeometry x="30" y="473" width="60" height="40" as="geometry" />
        </mxCell>
        <mxCell id="RnodLkLtg4VCzTAe2rc--137" value="(1,N)" style="text;html=1;align=center;verticalAlign=middle;resizable=0;points=[];autosize=1;strokeColor=none;fillColor=none;fontSize=20;fontFamily=Architects Daughter;rounded=0;" parent="1" vertex="1">
          <mxGeometry x="20" y="703" width="60" height="40" as="geometry" />
        </mxCell>
        <mxCell id="RnodLkLtg4VCzTAe2rc--138" value="(1,1)" style="text;html=1;align=center;verticalAlign=middle;resizable=0;points=[];autosize=1;strokeColor=none;fillColor=none;fontSize=20;fontFamily=Architects Daughter;rounded=0;" parent="1" vertex="1">
          <mxGeometry x="25" y="863" width="50" height="40" as="geometry" />
        </mxCell>
        <mxCell id="RnodLkLtg4VCzTAe2rc--139" value="(0,N)" style="text;html=1;align=center;verticalAlign=middle;resizable=0;points=[];autosize=1;strokeColor=none;fillColor=none;fontSize=20;fontFamily=Architects Daughter;rounded=0;" parent="1" vertex="1">
          <mxGeometry x="145" y="913" width="70" height="40" as="geometry" />
        </mxCell>
        <mxCell id="RnodLkLtg4VCzTAe2rc--140" value="(1,1)" style="text;html=1;align=center;verticalAlign=middle;resizable=0;points=[];autosize=1;strokeColor=none;fillColor=none;fontSize=20;fontFamily=Architects Daughter;rounded=0;" parent="1" vertex="1">
          <mxGeometry x="345" y="913" width="50" height="40" as="geometry" />
        </mxCell>
        <mxCell id="RnodLkLtg4VCzTAe2rc--141" value="(1,1)" style="text;html=1;align=center;verticalAlign=middle;resizable=0;points=[];autosize=1;strokeColor=none;fillColor=none;fontSize=20;fontFamily=Architects Daughter;rounded=0;" parent="1" vertex="1">
          <mxGeometry x="525" y="913" width="50" height="40" as="geometry" />
        </mxCell>
        <mxCell id="RnodLkLtg4VCzTAe2rc--142" value="(1,1)" style="text;html=1;align=center;verticalAlign=middle;resizable=0;points=[];autosize=1;strokeColor=none;fillColor=none;fontSize=20;fontFamily=Architects Daughter;rounded=0;" parent="1" vertex="1">
          <mxGeometry x="725" y="983" width="50" height="40" as="geometry" />
        </mxCell>
        <mxCell id="RnodLkLtg4VCzTAe2rc--143" value="(1,500)" style="text;html=1;align=center;verticalAlign=middle;resizable=0;points=[];autosize=1;strokeColor=none;fillColor=none;fontSize=20;fontFamily=Architects Daughter;rounded=0;" parent="1" vertex="1">
          <mxGeometry x="890" y="870" width="80" height="40" as="geometry" />
        </mxCell>
        <mxCell id="RnodLkLtg4VCzTAe2rc--144" value="(1,5)" style="text;html=1;align=center;verticalAlign=middle;resizable=0;points=[];autosize=1;strokeColor=none;fillColor=none;fontSize=20;fontFamily=Architects Daughter;rounded=0;" parent="1" vertex="1">
          <mxGeometry x="890" y="673" width="60" height="40" as="geometry" />
        </mxCell>
        <mxCell id="RnodLkLtg4VCzTAe2rc--145" value="(1,1)" style="text;html=1;align=center;verticalAlign=middle;resizable=0;points=[];autosize=1;strokeColor=none;fillColor=none;fontSize=20;fontFamily=Architects Daughter;rounded=0;" parent="1" vertex="1">
          <mxGeometry x="885" y="463" width="50" height="40" as="geometry" />
        </mxCell>
        <mxCell id="RnodLkLtg4VCzTAe2rc--146" value="(1,1000)" style="text;html=1;align=center;verticalAlign=middle;resizable=0;points=[];autosize=1;strokeColor=none;fillColor=none;fontSize=20;fontFamily=Architects Daughter;rounded=0;" parent="1" vertex="1">
          <mxGeometry x="895" y="300" width="80" height="40" as="geometry" />
        </mxCell>
        <mxCell id="RnodLkLtg4VCzTAe2rc--147" value="(1,1)" style="text;html=1;align=center;verticalAlign=middle;resizable=0;points=[];autosize=1;strokeColor=none;fillColor=none;fontSize=20;fontFamily=Architects Daughter;rounded=0;" parent="1" vertex="1">
          <mxGeometry x="665" y="503" width="50" height="40" as="geometry" />
        </mxCell>
        <mxCell id="RnodLkLtg4VCzTAe2rc--148" value="(0,5)" style="text;html=1;align=center;verticalAlign=middle;resizable=0;points=[];autosize=1;strokeColor=none;fillColor=none;fontSize=20;fontFamily=Architects Daughter;rounded=0;" parent="1" vertex="1">
          <mxGeometry x="655" y="635" width="70" height="40" as="geometry" />
        </mxCell>
        <mxCell id="RnodLkLtg4VCzTAe2rc--149" value="(1,N)" style="text;html=1;align=center;verticalAlign=middle;resizable=0;points=[];autosize=1;strokeColor=none;fillColor=none;fontSize=20;fontFamily=Architects Daughter;rounded=0;" parent="1" vertex="1">
          <mxGeometry x="520" y="613" width="60" height="40" as="geometry" />
        </mxCell>
        <mxCell id="RnodLkLtg4VCzTAe2rc--150" value="(0,N)" style="text;html=1;align=center;verticalAlign=middle;resizable=0;points=[];autosize=1;strokeColor=none;fillColor=none;fontSize=20;fontFamily=Architects Daughter;rounded=0;" parent="1" vertex="1">
          <mxGeometry x="505" y="533" width="70" height="40" as="geometry" />
        </mxCell>
        <mxCell id="RnodLkLtg4VCzTAe2rc--151" value="(1,20)" style="text;html=1;align=center;verticalAlign=middle;resizable=0;points=[];autosize=1;strokeColor=none;fillColor=none;fontSize=20;fontFamily=Architects Daughter;rounded=0;" parent="1" vertex="1">
          <mxGeometry x="725" y="363" width="70" height="40" as="geometry" />
        </mxCell>
        <mxCell id="RnodLkLtg4VCzTAe2rc--152" value="(1,40)" style="text;html=1;align=center;verticalAlign=middle;resizable=0;points=[];autosize=1;strokeColor=none;fillColor=none;fontSize=20;fontFamily=Architects Daughter;rounded=0;" parent="1" vertex="1">
          <mxGeometry x="725" y="233" width="70" height="40" as="geometry" />
        </mxCell>
        <mxCell id="RnodLkLtg4VCzTAe2rc--153" value="(1,1)" style="text;html=1;align=center;verticalAlign=middle;resizable=0;points=[];autosize=1;strokeColor=none;fillColor=none;fontSize=20;fontFamily=Architects Daughter;rounded=0;" parent="1" vertex="1">
          <mxGeometry x="765" y="113" width="50" height="40" as="geometry" />
        </mxCell>
        <mxCell id="RnodLkLtg4VCzTAe2rc--154" value="(1,1)" style="text;html=1;align=center;verticalAlign=middle;resizable=0;points=[];autosize=1;strokeColor=none;fillColor=none;fontSize=20;fontFamily=Architects Daughter;rounded=0;" parent="1" vertex="1">
          <mxGeometry x="735" y="773" width="50" height="40" as="geometry" />
        </mxCell>
        <mxCell id="RnodLkLtg4VCzTAe2rc--155" value="(1,1)" style="text;html=1;align=center;verticalAlign=middle;resizable=0;points=[];autosize=1;strokeColor=none;fillColor=none;fontSize=20;fontFamily=Architects Daughter;rounded=0;" parent="1" vertex="1">
          <mxGeometry x="410" y="730" width="50" height="40" as="geometry" />
        </mxCell>
        <mxCell id="RnodLkLtg4VCzTAe2rc--156" value="(1,5)" style="text;html=1;align=center;verticalAlign=middle;resizable=0;points=[];autosize=1;strokeColor=none;fillColor=none;fontSize=20;fontFamily=Architects Daughter;rounded=0;" parent="1" vertex="1">
          <mxGeometry x="330" y="430" width="60" height="40" as="geometry" />
        </mxCell>
        <mxCell id="Lw0HxOSQ15sF1D-NY27J-1" value="&lt;span style=&quot;border-bottom: 1px dotted&quot;&gt;T_ID&lt;/span&gt;" style="ellipse;whiteSpace=wrap;html=1;align=center;hachureGap=4;fontFamily=Architects Daughter;fontSource=https%3A%2F%2Ffonts.googleapis.com%2Fcss%3Ffamily%3DArchitects%2BDaughter;fontSize=20;" vertex="1" parent="1">
          <mxGeometry x="360" y="1020" width="80" height="40" as="geometry" />
        </mxCell>
      </root>
    </mxGraphModel>
  </diagram>
</mxfile>
